<?xml version="1.0" encoding="utf-8"?>
<!-- Generator: Adobe Illustrator 16.0.0, SVG Export Plug-In . SVG Version: 6.00 Build 0)  -->
<!DOCTYPE svg PUBLIC "-//W3C//DTD SVG 1.1//EN" "http://www.w3.org/Graphics/SVG/1.1/DTD/svg11.dtd">
<svg version="1.1" id="Layer_1" xmlns="http://www.w3.org/2000/svg" xmlns:xlink="http://www.w3.org/1999/xlink" x="0px" y="0px"
	 width="216.34px" height="146.405px" viewBox="0 0 216.34 146.405" enable-background="new 0 0 216.34 146.405"
	 xml:space="preserve">
<g>
	<defs>
		<rect id="SVGID_1_" width="216.34" height="146.405"/>
	</defs>
	<clipPath id="SVGID_2_">
		<use xlink:href="#SVGID_1_"  overflow="visible"/>
	</clipPath>
	<path clip-path="url(#SVGID_2_)" fill="#F99E35" d="M208.828,35.969l-4.26-3.407c-0.05-0.04-0.106-0.068-0.157-0.106
		c-0.088-0.064-0.179-0.124-0.272-0.181c-0.13-0.08-0.262-0.152-0.397-0.217c-0.1-0.047-0.196-0.093-0.299-0.133
		c-0.151-0.059-0.308-0.103-0.466-0.144c-0.094-0.025-0.184-0.054-0.279-0.072c-0.26-0.049-0.522-0.08-0.787-0.08h-0.001h-10.687
		v-2.411c0-1.293-0.587-2.516-1.597-3.324l-4.259-3.407c-0.051-0.04-0.107-0.068-0.158-0.106c-0.088-0.064-0.178-0.123-0.271-0.181
		c-0.13-0.08-0.262-0.151-0.398-0.216c-0.098-0.047-0.194-0.093-0.296-0.133c-0.153-0.059-0.31-0.104-0.469-0.145
		c-0.093-0.025-0.183-0.054-0.278-0.072c-0.26-0.049-0.522-0.08-0.788-0.08h-26.224V18.59c0-1.293-0.588-2.516-1.598-3.323
		l-4.259-3.408c-0.05-0.04-0.106-0.068-0.158-0.105c-0.088-0.065-0.178-0.124-0.271-0.182c-0.13-0.08-0.262-0.151-0.398-0.216
		c-0.098-0.047-0.195-0.093-0.297-0.133c-0.152-0.059-0.31-0.104-0.467-0.145c-0.095-0.024-0.185-0.054-0.279-0.072
		c-0.259-0.049-0.522-0.08-0.789-0.08h-41.706H64.556c-2.351,0-4.256,1.906-4.256,4.256v6.372H29.817
		c-2.35,0-4.256,1.906-4.256,4.256v5.819H10.615c-2.35,0-4.256,1.906-4.256,4.256v94.729c0,0.028,0.008,0.054,0.009,0.082
		c0.004,0.254,0.026,0.506,0.075,0.752c0.006,0.031,0.017,0.061,0.023,0.09c0.049,0.222,0.117,0.437,0.201,0.646
		c0.016,0.043,0.03,0.086,0.049,0.128c0.093,0.215,0.207,0.42,0.335,0.617c0.029,0.045,0.059,0.088,0.089,0.132
		c0.138,0.194,0.287,0.382,0.457,0.553c0.014,0.014,0.03,0.026,0.044,0.039c0.101,0.099,0.204,0.196,0.316,0.286l4.259,3.407
		c0.755,0.604,1.692,0.933,2.659,0.933h191.294c2.351,0,4.256-1.906,4.256-4.256V39.293C210.425,38,209.838,36.777,208.828,35.969
		 M182.708,25.81L182.708,25.81z M186.964,29.215L186.964,29.215l0.003,0.003L186.964,29.215z"/>
	<path clip-path="url(#SVGID_2_)" fill="#FFFFFF" d="M106.263,15.182h39.819c1.042,0,1.888,0.845,1.888,1.887v6.854
		c0,1.042,0.845,1.887,1.887,1.887h30.964c1.043,0,1.887,0.845,1.887,1.887v6.301c0,1.042,0.846,1.887,1.888,1.887h15.428
		c1.043,0,1.887,0.845,1.887,1.887v90.955c0,1.042-0.844,1.888-1.887,1.888H12.502c-1.043,0-1.887-0.846-1.887-1.888V37.772
		c0-1.042,0.844-1.887,1.887-1.887h15.428c1.042,0,1.887-0.845,1.887-1.887v-6.301c0-1.042,0.844-1.887,1.887-1.887h30.964
		c1.042,0,1.887-0.845,1.887-1.887v-6.854c0-1.042,0.845-1.887,1.887-1.887H106.263z"/>
	<path clip-path="url(#SVGID_2_)" fill-rule="evenodd" clip-rule="evenodd" fill="#F99E35" d="M193.821,124.861H18.526
		c-1.2,0-2.173-0.974-2.173-2.174V67.672c0-14.144,3.392-21.437,25.699-28.959c22.306-7.521,57.057-15.666,64.005-15.666
		c6.947,0,41.698,8.145,64.005,15.666c22.306,7.522,25.699,14.815,25.699,28.959l0.232,55.006
		C196,123.882,195.025,124.861,193.821,124.861"/>
	<path clip-path="url(#SVGID_2_)" fill="#FFFFFF" d="M37.544,70.189c-2.572,0.001-5.413-0.626-8.154-1.637
		c0.301-1.128,0.601-2.272,0.9-3.432c2.441,0.608,4.921,1.024,7.164,0.908c2.476-0.123,3.928-0.845,3.911-2.571
		c-0.013-1.395-1.127-1.63-4.677-2.715c-4.364-1.276-6.521-1.952-6.524-5.408c0.003-3.579,2.443-6.25,7.867-7.861
		c2.155-0.621,5.014-0.912,6.989-0.663c-0.205,1.51-0.41,3.009-0.616,4.499c-1.745-0.264-4.292-0.047-6.28,0.416
		c-2.709,0.633-3.653,1.286-3.647,2.508c0.008,1.342,1.214,1.392,5.108,2.489c4.102,1.215,6.095,1.843,6.146,6.268
		C45.786,67.546,42.34,70.244,37.544,70.189"/>
	<path clip-path="url(#SVGID_2_)" fill="#FFFFFF" d="M60.136,59.102c0.047,3.547,0.094,7.094,0.141,10.64
		c-1.461,0.005-2.922,0.009-4.383,0.014c-0.046-3.436-0.092-6.872-0.138-10.308c-2.279-5.116-4.552-9.95-6.809-14.449
		c1.45-0.338,2.902-0.663,4.356-0.976c1.519,3.188,3.044,6.516,4.572,9.969c1.42-3.798,2.841-7.704,4.264-11.702
		c1.462-0.26,2.926-0.507,4.391-0.741C64.394,47.599,62.264,53.467,60.136,59.102"/>
	<path clip-path="url(#SVGID_2_)" fill="#FFFFFF" d="M71.559,69.712c-0.112-9.622-0.224-19.244-0.336-28.866
		c1.468-0.206,2.938-0.399,4.409-0.58c0.084,7.912,0.168,15.824,0.252,23.735c3.131-0.079,6.264-0.147,9.398-0.202
		c0.015,1.963,0.03,3.925,0.045,5.888C80.738,69.693,76.148,69.701,71.559,69.712"/>
	<path clip-path="url(#SVGID_2_)" fill="#FFFFFF" d="M98.072,69.675c-1.501,0.001-3.002,0.002-4.502,0.003
		c-2.331-10.315-4.687-20.514-7.063-30.503c1.476-0.116,2.953-0.219,4.43-0.31c1.629,7.415,3.246,14.913,4.851,22.464
		c1.533-7.588,3.08-15.22,4.64-22.863c1.48-0.035,2.959-0.056,4.438-0.064C102.574,48.838,100.309,59.293,98.072,69.675"/>
	<path clip-path="url(#SVGID_2_)" fill="#FFFFFF" d="M120.2,69.679c-0.486-2.118-0.974-4.243-1.461-6.371
		c-2.403-0.027-4.807-0.045-7.209-0.057c-0.513,2.139-1.023,4.28-1.533,6.422c-1.433,0-2.865,0-4.297,0
		c2.463-10.425,4.957-20.855,7.478-31.182c1.361,0.037,2.721,0.085,4.081,0.144c2.441,10.455,4.852,20.841,7.238,31.048
		C123.064,69.682,121.632,69.68,120.2,69.679 M115.194,45.564c-0.869,4.12-1.734,8.254-2.597,12.399
		c1.693,0.017,3.387,0.04,5.08,0.07C116.854,53.888,116.026,49.731,115.194,45.564"/>
	<path clip-path="url(#SVGID_2_)" fill="#FFFFFF" d="M143.205,69.717c-3.062-6.296-6.131-12.897-9.219-19.686
		c-0.065,6.555-0.129,13.111-0.193,19.666c-1.442-0.003-2.885-0.005-4.327-0.007c0.085-10.068,0.171-20.136,0.256-30.204
		c1.436,0.133,2.87,0.279,4.304,0.438c3.097,6.921,6.173,13.674,9.238,20.143c0.076-6.306,0.152-12.611,0.229-18.916
		c1.447,0.216,2.893,0.444,4.337,0.685c-0.119,9.297-0.238,18.595-0.357,27.892C146.05,69.725,144.627,69.72,143.205,69.717"/>
	<path clip-path="url(#SVGID_2_)" fill="#FFFFFF" d="M154.925,69.75c0.118-8.852,0.237-17.704,0.355-26.556
		c1.458,0.288,2.912,0.589,4.366,0.904c-0.112,8.555-0.226,17.111-0.339,25.667C157.847,69.76,156.386,69.755,154.925,69.75"/>
	<path clip-path="url(#SVGID_2_)" fill="#FFFFFF" d="M178.917,69.846c-0.49-1.425-0.979-2.879-1.465-4.363
		c-2.386-0.151-4.774-0.294-7.165-0.43c-0.521,1.556-1.044,3.139-1.568,4.748c-1.433-0.006-2.864-0.012-4.296-0.017
		c2.565-8.168,5.11-15.763,7.612-22.677c1.325,0.357,2.647,0.726,3.969,1.105c2.358,7.9,4.754,15.154,7.208,21.656
		C181.78,69.86,180.349,69.853,178.917,69.846 M173.979,52.645c-0.862,2.771-1.729,5.637-2.603,8.592
		c1.676,0.171,3.351,0.349,5.023,0.534C175.588,58.819,174.78,55.776,173.979,52.645"/>
	<path clip-path="url(#SVGID_2_)" fill="#FFFFFF" d="M42.574,94.323L41.2,90.634h-6.622l-1.4,3.688H29.22l6.811-17.931h3.716
		l6.784,17.931H42.574z M37.889,80.43l-2.342,7.162h4.658L37.889,80.43z"/>
	<polygon clip-path="url(#SVGID_2_)" fill="#FFFFFF" points="64.78,94.323 60.634,94.323 54.334,76.392 58.373,76.392 
		62.708,89.503 67.016,76.392 71.053,76.392 	"/>
	<polygon clip-path="url(#SVGID_2_)" fill="#FFFFFF" points="82.897,94.323 82.897,76.392 96.062,76.392 96.062,79.865 
		86.936,79.865 86.936,83.337 95.551,83.337 95.551,86.811 86.936,86.811 86.936,90.849 96.062,90.849 96.062,94.323 	"/>
	<polygon clip-path="url(#SVGID_2_)" fill="#FFFFFF" points="121.96,94.323 113.291,82.476 113.291,94.323 109.306,94.323 
		109.306,76.392 113.236,76.392 121.906,88.264 121.906,76.392 125.891,76.392 125.891,94.323 	"/>
	<path clip-path="url(#SVGID_2_)" fill="#FFFFFF" d="M147.748,94.619c-4.871,0-8.076-3.607-8.076-7.754V76.392h4.039v10.473
		c0,2.585,1.695,4.146,4.037,4.146c2.343,0,4.039-1.562,4.039-4.146V76.392h4.038v10.473
		C155.825,91.011,152.621,94.619,147.748,94.619"/>
	<polygon clip-path="url(#SVGID_2_)" fill="#FFFFFF" points="169.607,94.323 169.607,76.392 182.772,76.392 182.772,79.865 
		173.646,79.865 173.646,83.337 182.261,83.337 182.261,86.811 173.646,86.811 173.646,90.849 182.772,90.849 182.772,94.323 	"/>
	<polygon clip-path="url(#SVGID_2_)" fill="#FFFFFF" points="40.875,117.381 33.196,106.887 33.196,117.381 29.667,117.381 
		29.667,101.499 33.148,101.499 40.827,112.015 40.827,101.499 44.357,101.499 44.357,117.381 	"/>
	<polygon clip-path="url(#SVGID_2_)" fill="#FFFFFF" points="50.077,117.381 50.077,101.499 61.738,101.499 61.738,104.575 
		53.655,104.575 53.655,107.652 61.286,107.652 61.286,110.727 53.655,110.727 53.655,114.305 61.738,114.305 61.738,117.381 	"/>
	<rect x="66.862" y="101.498" clip-path="url(#SVGID_2_)" fill="#FFFFFF" width="3.578" height="15.883"/>
	<path clip-path="url(#SVGID_2_)" fill="#FFFFFF" d="M84.079,117.644c-5.605,0-8.991-3.649-8.991-8.18
		c0-4.866,3.84-8.204,8.943-8.204c1.599,0,3.22,0.167,4.603,0.501l-0.477,3.004c-1.335-0.238-2.337-0.333-3.672-0.333
		c-3.912,0-5.819,1.812-5.819,5.032c0,2.885,1.835,5.008,5.103,5.008c0.835,0,1.645-0.048,2.337-0.167v-5.104h3.339v7.704
		C88.229,117.286,85.581,117.644,84.079,117.644"/>
	<polygon clip-path="url(#SVGID_2_)" fill="#FFFFFF" points="104.919,117.381 104.919,110.966 98.027,110.966 98.027,117.381 
		94.45,117.381 94.45,101.499 98.027,101.499 98.027,107.794 104.919,107.794 104.919,101.499 108.497,101.499 108.497,117.381 	"/>
	<path clip-path="url(#SVGID_2_)" fill="#FFFFFF" d="M122.873,117.382h-8.657v-15.885h7.895c3.028,0,4.864,1.646,4.864,4.126
		c0,1.193-0.596,2.72-2.479,3.41c2.146,0.646,3.029,2.314,3.029,3.77C127.524,115.092,125.712,117.382,122.873,117.382
		 M121.228,104.312h-3.529v3.697h3.529c1.479,0,2.171-0.764,2.171-1.908C123.398,104.956,122.706,104.312,121.228,104.312
		 M121.776,110.68h-4.078v3.863h4.078c1.479,0,2.171-0.787,2.171-1.932S123.255,110.68,121.776,110.68"/>
	<path clip-path="url(#SVGID_2_)" fill="#FFFFFF" d="M138.824,117.643c-4.531,0-8.085-3.647-8.085-8.18
		c0-4.531,3.554-8.204,8.085-8.204s8.109,3.673,8.109,8.204C146.934,113.996,143.355,117.643,138.824,117.643 M138.824,104.431
		c-2.886,0-4.507,2.146-4.507,5.032s1.621,5.008,4.507,5.008s4.531-2.122,4.531-5.008S141.71,104.431,138.824,104.431"/>
	<path clip-path="url(#SVGID_2_)" fill="#FFFFFF" d="M162.525,117.382l-4.148-5.7h-3.339v5.7h-3.578v-15.885h8.633
		c3.029,0,5.223,2.314,5.223,5.104c0,1.979-1.097,3.72-2.933,4.555l4.579,6.226H162.525z M159.378,104.384h-4.34v4.507h4.34
		c1.24,0,2.266-0.954,2.266-2.289S160.618,104.384,159.378,104.384"/>
	<path clip-path="url(#SVGID_2_)" fill="#FFFFFF" d="M176.831,117.644c-2.1,0-4.412-0.453-6.654-1.336l0.74-2.742
		c2.003,0.645,4.03,1.049,5.866,1.049c2.026,0,3.22-0.453,3.22-1.646c0-0.978-0.906-1.168-3.816-2.266
		c-3.577-1.335-5.366-2.241-5.366-5.031c0-2.935,2.052-4.412,6.559-4.412c1.789,0,4.149,0.334,5.771,0.811l-0.549,2.909
		c-1.431-0.405-3.528-0.644-5.174-0.644c-2.243,0-3.03,0.31-3.03,1.24c0,1.001,1.002,1.287,4.198,2.527
		c3.362,1.312,4.985,1.837,4.985,4.77C183.581,115.855,180.742,117.644,176.831,117.644"/>
</g>
</svg>
